<svg xmlns="http://www.w3.org/2000/svg" width="200" height="100" viewBox="0 0 500 137"><g fill="#51A2C3"><path d="M64.49 44.048V36.07h3.76v-1.986h-3.76v-3.56h-.53c-.778 0-1.42.53-1.47 1.197l-.005.005v12.772c0 2.6 1.217 3.904 3.65 3.904h1.403v-1.97h-1.293c-1.167 0-1.756-1.027-1.756-2.382zM217.832 30.523h-.532c-.78 0-1.423.532-1.47 1.198l-.008.005v12.772c0 2.6 1.22 3.904 3.65 3.904h1.405v-1.97h-1.292c-1.17 0-1.753-1.027-1.753-2.382V36.07h3.754v-1.986h-3.754v-3.56zM129.58 34.143h-2.622c-2.434 0-3.648 1.306-3.648 3.912V48.4h1.974V38.147c0-1.35.58-2.027 1.753-2.027h2.542v-1.977zM160.455 31.98v2.264h-3.608c-3.75.172-6.74 3.275-6.74 7.07 0 3.796 2.99 6.913 6.74 7.086h5.586V30.7h-.504c-.813 0-1.475.576-1.475 1.28zm0 14.45h-3.275c-2.672 0-5.1-2.446-5.1-5.115 0-2.667 2.428-5.068 5.1-5.068h3.275V46.43zM248.858 34.245c-3.52 0-6.744 3.275-6.744 7.07 0 3.796 2.994 6.913 6.744 7.086h5.585V34.246h-5.585zm3.603 12.184h-3.27c-2.668 0-5.098-2.446-5.098-5.115 0-2.667 2.43-5.068 5.098-5.068h3.27V46.43zM10.448 34.245c-3.72 0-7.118 3.458-7.118 7.465 0 4.01 3.156 7.305 7.118 7.49h5.902V34.245h-5.902zm3.81 12.87h-3.46c-2.816 0-5.384-2.583-5.384-5.405 0-2.816 2.567-5.352 5.385-5.352h3.458v10.756zM95.782 34.088c-3.872 0-7.002 3.203-7.002 7.157 0 3.94 3.11 7.136 6.96 7.158V48.4h5.172v-1.97H95.74c-2.567-.022-4.67-1.973-4.986-4.512h11.99c.02-.22.036-.445.036-.673 0-3.954-3.137-7.157-6.998-7.157zm-4.902 5.844c.566-2.23 2.543-3.872 4.898-3.872 2.357 0 4.332 1.644 4.903 3.872h-9.8zM38.913 44.524v-14h-.695c-.708 0-1.292.482-1.335 1.088h-.002v13.243c0 2.365 1.105 3.55 3.31 3.55h1.763v-2.032h-1.448c-1.06 0-1.592-.62-1.592-1.85zM182.963 41.315c0 3.796 2.993 6.913 6.742 7.086h5.588V34.246h-5.588c-3.525 0-6.742 3.275-6.742 7.07zm10.348-5.068V46.43h-3.275c-2.664 0-5.1-2.446-5.1-5.115 0-2.667 2.437-5.068 5.1-5.068h3.276z"/></g><path fill="#51A2C3" d="M452.125 47.446c-24.468 0-44.3 19.836-44.3 44.303s19.832 44.3 44.3 44.3c24.47 0 44.3-19.833 44.3-44.3s-19.83-44.304-44.3-44.304zm0 83.194c-21.478 0-38.89-17.416-38.89-38.89 0-21.48 17.412-38.893 38.89-38.893 21.476 0 38.888 17.413 38.888 38.892 0 21.474-17.412 38.89-38.888 38.89z"/><path fill="#9CAFB6" d="M452.84 106.83c1.904 0 3.452-1.552 3.452-3.46 0-1.123-.56-2.18-1.477-2.823v-3.11c0-1.09-.886-1.976-1.975-1.976-1.09 0-1.973.887-1.973 1.978v3.11c-.924.643-1.486 1.7-1.486 2.822.002 1.908 1.554 3.46 3.46 3.46zM465.2 88.078v-.036h-3.94v.012h-16.836v-8.42c0-4.635 3.772-8.41 8.417-8.41 4.644 0 8.42 3.775 8.42 8.41v4.248h3.94v-4.247c0-6.814-5.544-12.357-12.36-12.357s-12.366 5.542-12.366 12.357v8.443c-2.495.246-4.45 2.36-4.45 4.922v17.803c0 2.73 2.214 4.95 4.94 4.95h23.748c2.727 0 4.944-2.222 4.944-4.95V93c0-2.562-1.96-4.676-4.455-4.922zm.51 22.725c0 .553-.447 1-.998 1h-23.75c-.55 0-.99-.447-.99-1V93c0-.55.44-1 .99-1h23.75c.55 0 .998.45.998 1v17.803zM37.856 77.14c0-8.135-6.39-14.89-14.614-14.89v-.017H7.092l-.003.02c-2.01.104-3.63 1.493-3.758 3.23L3.32 115.83h5.916V92.046h13.78v-.005c8.204-.034 14.84-6.69 14.84-14.9zm-14.55 9.01l-14.07-.006v-17.97l14.005-.01v-.016c4.975.002 9.03 4.058 9.03 9.035s-3.988 8.967-8.965 8.967zM122.535 103.373c-.03-7.854-3.72-11.928-11.064-11.928l-12.883.03H96.84c-3.26 0-5.022-1.614-5.29-5.065-.024-.3-.024-1.927-.014-2.164.21-3.612 1.97-5.296 5.304-5.296h22.353v-5.98h-22.59c-7.133 0-10.818 3.843-11.048 11.253v2.147c.29 7.31 3.966 11.083 11.048 11.083l14.623-.01c3.552 0 5.32 1.913 5.32 6.013v.49c0 4.108-1.77 6.008-5.32 6.008H88.042v5.98h23.43c7.344 0 11.025-4.044 11.063-11.894v-.667zM166.564 103.373c-.032-7.854-3.72-11.928-11.064-11.928l-12.885.03h-1.746c-3.26 0-5.023-1.614-5.293-5.065-.023-.3-.023-1.927-.01-2.164.207-3.612 1.967-5.296 5.302-5.296h22.35v-5.98h-22.589c-7.13 0-10.815 3.843-11.046 11.253v2.147c.292 7.31 3.965 11.083 11.047 11.083l14.624-.01c3.554 0 5.323 1.913 5.323 6.013v.49c0 4.108-1.77 6.008-5.323 6.008H132.07v5.98h23.43c7.345 0 11.03-4.044 11.065-11.894v-.667zM336.1 65.845v38.258c0 7.807 3.638 11.71 10.92 11.71h4.212v-5.91h-3.875c-3.5 0-5.246-3.077-5.246-7.132V78.866h11.264v-5.952H342.11V62.25h-1.594c-2.34 0-4.267 1.596-4.41 3.588l-.007.007zM72.663 115.83h5.98V73.075H61.77v.023c-11.328.525-20.353 9.87-20.353 21.326 0 11.458 9.025 20.807 20.352 21.33v.025l10.893.05zM47.37 94.425c0-8.057 7.345-15.303 15.403-15.303h9.89v30.755h-9.89c-8.058 0-15.404-7.393-15.404-15.452zM204.237 115.83h5.982V73.075h-16.877v.023c-11.326.525-20.35 9.87-20.35 21.326 0 11.458 9.024 20.807 20.35 21.33v.025l10.894.05zm-25.29-21.405c0-8.057 7.345-15.303 15.402-15.303h9.887v30.755h-9.888c-8.058 0-15.404-7.393-15.404-15.452zM221.078 72.977V73c-2.042.103-3.686 1.518-3.813 3.29l-.014.005.007 54.115h6v-14.453h.004l10.953-.05v-.027c11.38-.522 20.46-9.92 20.46-21.44 0-11.525-9.08-20.91-20.46-21.44v-.03l-13.135.007zm27.6 21.46c0 8.105-7.38 15.543-15.477 15.543h-9.94V79.05h9.94c8.096 0 15.48 7.285 15.48 15.388zM401.25 96.787c.06-.646.108-1.31.108-1.976 0-11.67-9.252-21.125-20.648-21.125-11.424 0-20.666 9.455-20.666 21.126 0 11.626 9.182 21.052 20.54 21.12h15.264v-5.824h-15.264c-7.574-.06-13.785-5.824-14.715-13.32h35.38zm-20.554-17.284c6.957 0 12.78 4.857 14.467 11.433H366.24c1.675-6.576 7.506-11.433 14.456-11.433zM310.57 115.812h5.91V85.086c0-4.052 1.748-6.084 5.247-6.084h7.62V73.1h-7.852c-7.28 0-10.927 3.9-10.927 11.706v31.006zM282.57 73.025c-11.54 0-20.904 9.588-20.904 21.42 0 11.84 9.365 21.436 20.905 21.436 11.537 0 20.903-9.595 20.903-21.435 0-11.832-9.366-21.42-20.902-21.42zm0 36.834c-8.297 0-15.033-6.894-15.033-15.415 0-8.5 6.736-15.397 15.034-15.397 8.293 0 15.03 6.897 15.03 15.397.002 8.522-6.737 15.414-15.03 15.414z"/><path fill="#51A2C3" d="M450.246 40.84c.607-.023 1.217-.048 1.833-.048 1.05 0 2.09.04 3.12.103C450.73 17.978 430.507.622 406.307.622c-17.778 0-34.343 9.602-43.24 25.06l-.723 1.26-1.417-.32c-3.27-.73-6.64-1.102-10.003-1.102-22.01 0-40.893 15.684-44.898 37.287l-.22 1.205-1.18.333c-3.588 1.02-6.926 2.578-9.94 4.556 1.642.796 3.194 1.745 4.64 2.834 2.8-1.55 5.86-2.692 9.127-3.338l1.72-.34.206-1.747c2.45-20.495 19.88-35.95 40.546-35.95 4.072 0 8.1.6 11.977 1.788l1.982.607.9-1.867c7.477-15.444 23.382-25.425 40.524-25.425 21.502-.002 39.518 15.174 43.94 35.376zM420.053 131.19H314.648c-9.35 0-17.766-4.075-23.574-10.537-1.71.548-3.493.934-5.328 1.145 6.688 8.646 17.153 14.226 28.902 14.226h112.538c-2.518-1.414-4.903-3.03-7.133-4.835z"/></svg>